<svg width="32" height="32" viewBox="0 0 32 32" fill="none" xmlns="http://www.w3.org/2000/svg">
  <!-- Spider Web Background -->
  <circle cx="16" cy="16" r="14" stroke="#ffffff" stroke-width="0.5" fill="none" opacity="0.3"/>
  <circle cx="16" cy="16" r="10" stroke="#ffffff" stroke-width="0.5" fill="none" opacity="0.4"/>
  <circle cx="16" cy="16" r="6" stroke="#ffffff" stroke-width="0.5" fill="none" opacity="0.5"/>
  
  <!-- Web Lines -->
  <line x1="16" y1="2" x2="16" y2="30" stroke="#ffffff" stroke-width="0.5" opacity="0.4"/>
  <line x1="2" y1="16" x2="30" y2="16" stroke="#ffffff" stroke-width="0.5" opacity="0.4"/>
  <line x1="5.17" y1="5.17" x2="26.83" y2="26.83" stroke="#ffffff" stroke-width="0.5" opacity="0.4"/>
  <line x1="26.83" y1="5.17" x2="5.17" y2="26.83" stroke="#ffffff" stroke-width="0.5" opacity="0.4"/>
  
  <!-- Spider Body -->
  <ellipse cx="16" cy="16" rx="5" ry="6" fill="#ffffff"/>
  <circle cx="16" cy="11" r="3.5" fill="#ffffff"/>
  
  <!-- Spider Eyes -->
  <circle cx="14.5" cy="10" r="1" fill="#00D4AA"/>
  <circle cx="17.5" cy="10" r="1" fill="#00D4AA"/>
  <circle cx="14.5" cy="10" r="0.4" fill="#000"/>
  <circle cx="17.5" cy="10" r="0.4" fill="#000"/>
  
  <!-- Spider Legs -->
  <path d="M12 14L7 9" stroke="#ffffff" stroke-width="1.5" stroke-linecap="round"/>
  <path d="M11 16L5 14" stroke="#ffffff" stroke-width="1.5" stroke-linecap="round"/>
  <path d="M11 18L5 20" stroke="#ffffff" stroke-width="1.5" stroke-linecap="round"/>
  <path d="M12 20L7 25" stroke="#ffffff" stroke-width="1.5" stroke-linecap="round"/>
  <path d="M20 14L25 9" stroke="#ffffff" stroke-width="1.5" stroke-linecap="round"/>
  <path d="M21 16L27 14" stroke="#ffffff" stroke-width="1.5" stroke-linecap="round"/>
  <path d="M21 18L27 20" stroke="#ffffff" stroke-width="1.5" stroke-linecap="round"/>
  <path d="M20 20L25 25" stroke="#ffffff" stroke-width="1.5" stroke-linecap="round"/>
</svg>
